<?xml version="1.0" encoding="UTF-8"?><svg xmlns="http://www.w3.org/2000/svg" viewBox="0 0 2274.96 300"><defs><style>.d{fill:#0123b4;}</style></defs><g id="a"/><g id="b"><g id="c"><g><path class="d" d="M0,297.11V73.1C0,69.52,0,0,82.43,0c58.34,0,71.17,42.49,86.75,73.1,15.58,30.61,64.02,133.9,64.02,133.9,0,0,4.68,11.16,13.14,10.45,5.38-.45,6.79-5.6,6.74-11.95-.06-6.57,0-201.46,0-201.46h84.69V226.32s2.15,69.57-80.64,72.4c-65.51,2.24-83.96-52.25-94.52-72.4-2.37-4.52-64.05-135.3-64.05-135.3,0,0-3.24-8.92-8.5-8.92-6.78,0-6.27,8.92-6.27,8.92v206.09H0Z"/><path class="d" d="M738.33,4.04V73.1h-191.33c-4.37,0-23.74-1.19-23.74,21.56,0,24.49,19.71,23.3,23.74,23.3h189.55v63.62h-189.55c-6.5,0-23.74,1.09-23.74,20.96s14.34,23.79,23.74,23.79h191.33v70.87h-183.24s-10.6-.09-23.74-.09-93.19,6.87-93.19-93.78V97.29c0-13.74-7.47-93.25,93.19-93.25h206.98Z"/><polygon class="d" points="822.94 4.04 822.94 73.1 927.79 73.1 927.79 297.11 1012.48 297.11 1012.48 73.1 1123.11 73.1 1123.11 4.04 822.94 4.04"/><path class="d" d="M1481.29,72.61V2.52h-205.57s-82.76-7.52-82.76,70.09v43.77s-4.85,70.94,82.76,70.94h122.48s16.91,.04,16.91,19.8c0,20.86-16.91,21.01-16.91,21.01h-198.86v71.85h215.83s77,3.33,77-71.85v-40.81s3.33-70.94-77-70.94h-120.66s-18.8,1-18.8-23.65c0-20.89,18.8-20.12,18.8-20.12h186.77Z"/><path class="d" d="M1593.45,4.04V73.1h200.5s25.09-1.34,25.09,24.19-25.09,23.3-25.09,23.3h-200.5v176.52h84.69v-106.63h140.9s78.93,4.48,78.93-93.19S1819.03,4.04,1819.03,4.04h-225.59Z"/><path class="d" d="M2069.75,110.62s5.58-14.13,16.94-14.13,16.94,14.13,16.94,14.13l84.31,189.36,87.01-.68-101.23-227.37S2144.9,1.85,2086.7,1.85s-87.03,70.09-87.03,70.09l-101.23,227.37,87.01,.68,84.31-189.36"/></g></g></g></svg>